<?xml version="1.0" encoding="UTF-8"?>
<svg version="1.1" xmlns="http://www.w3.org/2000/svg" width="512" height="512">
<path d="M0 0 C3.66197059 0.0068583 7.32390015 -0.00372391 10.98586226 -0.01193976 C18.13859244 -0.0252078 25.29122763 -0.02243051 32.44396138 -0.01370184 C38.26248128 -0.00689821 44.08097476 -0.00602009 49.89949751 -0.00927329 C50.7308692 -0.00973299 51.56224089 -0.01019269 52.41880566 -0.01066632 C54.10826342 -0.01162559 55.79772118 -0.01259824 57.48717892 -0.01358409 C73.29103512 -0.02211768 89.09483893 -0.01233585 104.89868653 0.00381701 C118.42883943 0.01721834 131.95891509 0.01488967 145.4890666 0.00106072 C161.24034694 -0.0150311 176.99158148 -0.0212939 192.7428689 -0.01210248 C194.4257547 -0.01114694 196.1086405 -0.01020383 197.79152632 -0.00927329 C199.03321147 -0.00857905 199.03321147 -0.00857905 200.29998118 -0.00787079 C206.10456756 -0.00529168 211.90912465 -0.00962847 217.71370649 -0.01671195 C224.79750061 -0.02516732 231.88119513 -0.02276265 238.96497798 -0.00686972 C242.57210164 0.00095912 246.17905987 0.00419795 249.78618193 -0.00581717 C277.62941256 -0.07675246 277.62941256 -0.07675246 290.84551191 3.39217401 C291.67416761 3.6094144 292.50282331 3.82665479 293.35658979 4.05047822 C325.99716191 13.52719211 351.14890796 36.05641562 367.49785566 65.35311151 C378.9427166 87.07796204 380.30443563 108.50557523 380.23768592 132.54666209 C380.23082761 136.20863268 380.24140983 139.87056224 380.24962568 143.53252435 C380.26289372 150.68525453 380.26011642 157.83788973 380.25138776 164.99062347 C380.24458413 170.80914338 380.24370601 176.62763685 380.24695921 182.4461596 C380.24741891 183.27753129 380.24787861 184.10890298 380.24835224 184.96546775 C380.24931151 186.65492551 380.25028415 188.34438327 380.25127001 190.03384101 C380.2598036 205.83769721 380.25002176 221.64150102 380.23386891 237.44534862 C380.22046758 250.97550152 380.22279625 264.50557718 380.23662519 278.03572869 C380.25271702 293.78700904 380.25897982 309.53824358 380.2497884 325.28953099 C380.24883286 326.97241679 380.24788975 328.6553026 380.24695921 330.33818841 C380.24649638 331.16597851 380.24603356 331.99376862 380.2455567 332.84664327 C380.2429776 338.65122966 380.24731439 344.45578674 380.25439787 350.26036859 C380.26285324 357.3441627 380.26044857 364.42785722 380.24455564 371.51164007 C380.2367268 375.11876373 380.23348797 378.72572197 380.24350309 382.33284402 C380.31443837 410.17607466 380.31443837 410.17607466 376.84551191 423.39217401 C376.62827152 424.22082971 376.41103113 425.04948541 376.1872077 425.90325189 C366.71049381 458.543824 344.1812703 483.69557005 314.88457441 500.04451776 C293.15972388 511.48937869 271.73211069 512.85109773 247.69102383 512.78434801 C244.02905324 512.77748971 240.36712368 512.78807192 236.70516157 512.79628778 C229.55243139 512.80955581 222.39979619 512.80677852 215.24706244 512.79804985 C209.42854254 512.79124622 203.61004907 512.7903681 197.79152632 512.7936213 C196.96015463 512.794081 196.12878294 512.7945407 195.27221817 512.79501433 C193.58276041 512.7959736 191.89330265 512.79694625 190.2038449 512.7979321 C174.39998871 512.8064657 158.5961849 512.79668386 142.7923373 512.780531 C129.26218439 512.76712968 115.73210874 512.76945834 102.20195723 512.78328729 C86.45067688 512.79937911 70.69944234 512.80564191 54.94815493 512.7964505 C53.26526913 512.79549495 51.58238332 512.79455184 49.89949751 512.7936213 C48.65781235 512.79292706 48.65781235 512.79292706 47.39104265 512.7922188 C41.58645626 512.78963969 35.78189918 512.79397648 29.97731733 512.80105996 C22.89352322 512.80951533 15.8098287 512.80711066 8.72604585 512.79121773 C5.11892219 512.78338889 1.51196395 512.78015007 -2.0951581 512.79016519 C-29.93838874 512.86110047 -29.93838874 512.86110047 -43.15448809 509.39217401 C-44.39747164 509.06631342 -44.39747164 509.06631342 -45.66556597 508.73386979 C-78.30613808 499.2571559 -103.45788413 476.72793239 -119.80683184 447.43123651 C-131.25169277 425.70638598 -132.61341181 404.27877278 -132.54666209 380.23768592 C-132.53980379 376.57571533 -132.55038601 372.91378577 -132.55860186 369.25182366 C-132.5718699 362.09909348 -132.5690926 354.94645829 -132.56036393 347.79372454 C-132.5535603 341.97520463 -132.55268218 336.15671116 -132.55593538 330.33818841 C-132.55639508 329.50681672 -132.55685478 328.67544503 -132.55732841 327.81888026 C-132.55828769 326.1294225 -132.55926033 324.43996474 -132.56024618 322.750507 C-132.56877978 306.9466508 -132.55899794 291.14284699 -132.54284509 275.33899939 C-132.52944376 261.80884649 -132.53177242 248.27877083 -132.54560137 234.74861932 C-132.56169319 218.99733898 -132.56795599 203.24610443 -132.55876458 187.49481702 C-132.55780903 185.81193122 -132.55686592 184.12904541 -132.55593538 182.4461596 C-132.55547256 181.6183695 -132.55500973 180.79057939 -132.55453288 179.93770474 C-132.55195377 174.13311836 -132.55629056 168.32856127 -132.56337404 162.52397943 C-132.57182941 155.44018531 -132.56942474 148.35649079 -132.55353181 141.27270794 C-132.54570297 137.66558428 -132.54246415 134.05862604 -132.55247927 130.45150399 C-132.62341455 102.60827335 -132.62341455 102.60827335 -129.15448809 89.39217401 C-128.9372477 88.5635183 -128.72000731 87.7348626 -128.49618387 86.88109612 C-119.01946999 54.24052401 -96.49024647 29.08877796 -67.19355059 12.73983026 C-45.46870006 1.29496932 -24.04108686 -0.06674972 0 0 Z " fill="#00B843" transform="translate(132.15448808670044,-0.39217400550842285)"/>
<path d="M0 0 C-2.54234663 33.77689097 -21.11012574 64.72836817 -46 87 C-67.14536284 104.34344332 -92.78272351 114.30304925 -120.25 114.125 C-120.9814624 114.12306641 -121.7129248 114.12113281 -122.46655273 114.11914062 C-128.67530498 114.07025816 -134.82601491 113.6661718 -141 113 C-144.8132728 123.42294567 -146.00602075 136.6915594 -142.5 147.375 C-137.24886486 164.08315726 -142.59144531 180.88181476 -150 196 C-149.03304199 195.93143799 -148.06608398 195.86287598 -147.06982422 195.79223633 C-130.10718372 194.69715866 -113.11562252 194.71364462 -96.125 194.6875 C-95.30218159 194.68576027 -94.47936317 194.68402054 -93.63161087 194.68222809 C-66.88146171 194.63249162 -40.21376703 195.33120218 -13.50075531 196.7399025 C-10.93950925 196.8748941 -8.37811947 197.00688564 -5.81671143 197.13876343 C-1.79847725 197.34781069 2.21890299 197.56900169 6.23586464 197.80120277 C7.71074798 197.88592233 9.18577439 197.96819171 10.66094017 198.04784203 C12.67429241 198.15818384 14.68691353 198.28163418 16.69946289 198.40576172 C18.38961266 198.50568924 18.38961266 198.50568924 20.11390686 198.6076355 C22.86608734 198.98179457 24.63735843 199.58369441 27 201 C25.10435574 201.79211929 23.20847629 202.58367576 21.3125 203.375 C20.25675781 203.81585938 19.20101563 204.25671875 18.11328125 204.7109375 C17.08589844 205.13632812 16.05851562 205.56171875 15 206 C14.25717773 206.32508545 13.51435547 206.6501709 12.74902344 206.98510742 C0.75085586 211.4146263 -12.79936202 211.73245541 -25.4375 212.5625 C-65.48604705 215.28462618 -99.59996109 223.37059671 -133 247 C-150.17515512 258.97090084 -166.67702691 268.62636223 -187 274 C-188.74603516 274.47953125 -188.74603516 274.47953125 -190.52734375 274.96875 C-216.16617798 281.08807397 -244.84927068 276.91661126 -267.71875 264.06640625 C-278.87419496 257.04113198 -288.45310099 248.02042686 -298 239 C-309.12132507 228.32862447 -309.12132507 228.32862447 -322 220 C-322 219.34 -322 218.68 -322 218 C-303.05216094 214.01875505 -284.11995147 210.07762827 -265 207 C-263.82630859 206.80760742 -263.82630859 206.80760742 -262.62890625 206.61132812 C-251.12450077 204.73919469 -239.56824391 203.28692656 -228 201.875 C-227.29530579 201.78855225 -226.59061157 201.70210449 -225.86456299 201.61303711 C-219.08519651 200.78492024 -212.31867325 199.99808884 -205.50390625 199.51953125 C-193.27641517 198.5527352 -178.17386235 193.94650344 -169.625 184.75 C-166.39739926 180.51784341 -164.0928567 175.87591083 -162 171 C-161.67773438 170.28714844 -161.35546875 169.57429687 -161.0234375 168.83984375 C-154.27478016 150.95905538 -160.16857393 129.24476257 -167.3046875 112.390625 C-171.32727588 104.34544824 -176.27073635 97.91586748 -185 95 C-193.1624053 92.70630084 -198.53600823 94.30124521 -206.0703125 97.80859375 C-218.83389936 102.99911907 -237.14778631 101.5273863 -249.71875 96.53515625 C-269.06720388 87.4828439 -283.2980886 73.60171093 -290.80859375 53.4453125 C-291.39833984 51.73988281 -291.39833984 51.73988281 -292 50 C-292.38027344 48.97390625 -292.76054687 47.9478125 -293.15234375 46.890625 C-294.01007963 43.96562707 -294.20699088 41.65866265 -294.125 38.625 C-294.10695313 37.75101563 -294.08890625 36.87703125 -294.0703125 35.9765625 C-294.04710937 35.32429688 -294.02390625 34.67203125 -294 34 C-273.82277618 25.64565964 -249.53607601 28.65244273 -229.625 36.3125 C-210.54967284 44.85991436 -195.7495046 58.48023334 -188 78 C-187.59117465 80.32129649 -187.23541764 82.65476353 -187 85 C-193.89711312 85.2254419 -200.0816399 84.48207698 -206.8125 83 C-208.30668457 82.67104736 -208.30668457 82.67104736 -209.83105469 82.33544922 C-224.19122741 78.98565314 -238.0469847 73.77285527 -250 65 C-234.80128776 80.19871224 -210.78402772 84.34345179 -190.52612305 87.38891602 C-189.52191566 87.53989494 -189.52191566 87.53989494 -188.49742126 87.69392395 C-186.64834056 87.96926601 -184.79831437 88.23823658 -182.94824219 88.50683594 C-180 89 -180 89 -177 90 C-177.144375 89.47535156 -177.28875 88.95070313 -177.4375 88.41015625 C-181.41056068 71.82814607 -179.38210854 55.22474633 -170.6796875 40.4609375 C-165.21786862 32.45873774 -157.80963082 26.99821707 -149 23 C-148.34 23.33 -147.68 23.66 -147 24 C-147.88751953 24.68835938 -147.88751953 24.68835938 -148.79296875 25.390625 C-149.97826172 26.31101562 -149.97826172 26.31101562 -151.1875 27.25 C-151.96480469 27.85328125 -152.74210938 28.4565625 -153.54296875 29.078125 C-154.35378906 29.71234375 -155.16460937 30.3465625 -156 31 C-156.84820312 31.60070312 -157.69640625 32.20140625 -158.5703125 32.8203125 C-166.12320365 39.59605729 -169.55356944 51.35975687 -170.12841797 61.19775391 C-170.25094784 63.77799922 -170.32192028 66.35492192 -170.375 68.9375 C-170.40134521 69.76008301 -170.42769043 70.58266602 -170.45483398 71.43017578 C-170.48299894 82.83810917 -165.02023241 92.35939913 -159.75 102.1875 C-159.19570312 103.23486328 -158.64140625 104.28222656 -158.0703125 105.36132812 C-156.71981522 107.91097385 -155.36300584 110.45702603 -154 113 C-151.77657321 110.09967857 -150.03367037 107.25914177 -148.375 104 C-133.00857157 75.57021963 -103.57380118 51.327356 -74 39 C-94.30678118 46.43998448 -111.26297513 57.07861361 -127 72 C-127.474375 72.44182617 -127.94875 72.88365234 -128.4375 73.33886719 C-137.19772681 81.53447 -144.70682201 90.43872908 -150.65234375 100.91015625 C-151.09707031 101.59980469 -151.54179687 102.28945312 -152 103 C-152.66 103 -153.32 103 -154 103 C-155.00786319 75.60105261 -148.0329219 47.57976714 -129 27 C-128.56848633 26.52755859 -128.13697266 26.05511719 -127.69238281 25.56835938 C-96.5403579 -8.20676576 -41.96346878 -22.45471106 0 0 Z " fill="#FCFEFD" transform="translate(406,147)"/>
<path d="M0 0 C16.42804884 4.88079712 29.35535127 13.97587787 38 29 C45.92636563 44.13215257 47.27616793 58.92578758 42.40234375 75.31640625 C39.05953497 84.09709895 34.24318227 91.97509948 28 99 C27.67 99 27.34 99 27 99 C26.94392578 97.07414062 26.94392578 97.07414062 26.88671875 95.109375 C26.5564812 85.66476107 25.9642426 76.35193752 24.5625 67 C24.44028076 66.17081055 24.31806152 65.34162109 24.19213867 64.48730469 C23.5439129 60.41177994 22.75729136 56.77323166 21 53 C21.2165625 54.00933594 21.433125 55.01867187 21.65625 56.05859375 C24.56245022 70.71385045 26.15095976 87.26163985 23 102 C9.94911108 98.14014706 1.66179105 88.36470166 -4.78515625 76.796875 C-13.21390222 59.64945076 -15.80548759 37.4981837 -9.875 19.0625 C-4.4614899 4.4614899 -4.4614899 4.4614899 0 0 Z " fill="#FCFEFC" transform="translate(210,83)"/>
<path d="M0 0 C0.51046875 0.29132813 1.0209375 0.58265625 1.546875 0.8828125 C16.80211344 9.48417035 31.74039842 15.7736611 49 19 C48.505 20.485 48.505 20.485 48 22 C31.67112839 19.76727674 12.73220404 12.87963467 0 2 C0 1.34 0 0.68 0 0 Z " fill="#2FC566" transform="translate(155,211)"/>
<path d="M0 0 C10.08512156 10.08512156 7.54863054 36.61120766 8 50 C7.01 50.495 7.01 50.495 6 51 C5.96036133 50.36312256 5.92072266 49.72624512 5.87988281 49.07006836 C4.91640644 34.18808462 3.20894478 19.69176345 0.33544922 5.05517578 C0 3 0 3 0 0 Z " fill="#47CB77" transform="translate(230,133)"/>
<path d="M0 0 C-1.02480469 0.47050781 -2.04960937 0.94101563 -3.10546875 1.42578125 C-4.46621423 2.0545395 -5.8268875 2.68345404 -7.1875 3.3125 C-8.19780273 3.7755957 -8.19780273 3.7755957 -9.22851562 4.24804688 C-12.24067548 5.64392583 -14.97954814 6.98614175 -17.73828125 8.85546875 C-18.48464844 9.23316406 -19.23101562 9.61085937 -20 10 C-22.3125 9.1875 -22.3125 9.1875 -24 8 C-21.62690978 6.87081967 -19.25168006 5.74657935 -16.875 4.625 C-16.20984375 4.30789062 -15.5446875 3.99078125 -14.859375 3.6640625 C-4.14043445 -1.38014482 -4.14043445 -1.38014482 0 0 Z " fill="#37C76B" transform="translate(335,186)"/>
<path d="M0 0 C1.89600369 0.31146472 3.79179587 0.62421717 5.6875 0.9375 C6.74324219 1.11152344 7.79898438 1.28554687 8.88671875 1.46484375 C11.60249604 1.93167121 14.30124235 2.44422616 17 3 C16.67 3.99 16.34 4.98 16 6 C14.26969709 5.71515154 12.54079286 5.42180062 10.8125 5.125 C9.84957031 4.96257812 8.88664063 4.80015625 7.89453125 4.6328125 C5.08967396 4.01960483 2.62775253 3.14333657 0 2 C0 1.34 0 0.68 0 0 Z " fill="#20C15B" transform="translate(187,227)"/>
<path d="M0 0 C3.45284126 3.45284126 4.1404767 8.29158193 5 13 C4.96461223 15.83544475 4.57953873 18.20767703 4 21 C3.67 21 3.34 21 3 21 C2.01 14.07 1.02 7.14 0 0 Z " fill="#59D084" transform="translate(230,133)"/>
<path d="M0 0 C5.15171623 -0.09038099 9.91913204 0.15318867 15 1 C15 1.66 15 2.32 15 3 C13.25034642 3.05429959 11.50020213 3.09292823 9.75 3.125 C8.77546875 3.14820313 7.8009375 3.17140625 6.796875 3.1953125 C3.9803502 2.99862781 2.39050964 2.44568916 0 1 C0 0.67 0 0.34 0 0 Z " fill="#0CBB4B" transform="translate(202,231)"/>
<path d="M0 0 C0 0.66 0 1.32 0 2 C-2.97 3.65 -5.94 5.3 -9 7 C-9 5.68 -9 4.36 -9 3 C-5.69865082 0.43228397 -4.27125508 0 0 0 Z " fill="#1BBF57" transform="translate(313,195)"/>
</svg>
